<mxfile host="65bd71144e">
    <diagram id="YIBKD7YSsPbZp13McySF" name="Page-1">
        <mxGraphModel dx="668" dy="642" grid="1" gridSize="10" guides="1" tooltips="1" connect="1" arrows="1" fold="1" page="1" pageScale="1" pageWidth="850" pageHeight="1100" background="#ffffff" math="0" shadow="0">
            <root>
                <mxCell id="0"/>
                <mxCell id="1" parent="0"/>
                <mxCell id="7" value="push()" style="rounded=0;whiteSpace=wrap;html=1;fillColor=#66FFFF;strokeColor=#000000;strokeWidth=2;fontSize=18;fontStyle=1;fontColor=#000000;" vertex="1" parent="1">
                    <mxGeometry x="50" y="140" width="120" height="60" as="geometry"/>
                </mxCell>
                <mxCell id="8" value="pop()" style="rounded=0;whiteSpace=wrap;html=1;fillColor=#66FFFF;strokeColor=#000000;strokeWidth=2;fontSize=18;fontStyle=1;fontColor=#000000;" vertex="1" parent="1">
                    <mxGeometry x="170" y="140" width="120" height="60" as="geometry"/>
                </mxCell>
                <mxCell id="9" value="top()" style="rounded=0;whiteSpace=wrap;html=1;fillColor=#66FFFF;strokeColor=#000000;strokeWidth=2;fontSize=18;fontStyle=1;fontColor=#000000;" vertex="1" parent="1">
                    <mxGeometry x="290" y="140" width="120" height="60" as="geometry"/>
                </mxCell>
                <mxCell id="10" value="empty()" style="rounded=0;whiteSpace=wrap;html=1;fillColor=#66FFFF;strokeColor=#000000;strokeWidth=2;fontSize=18;fontStyle=1;fontColor=#000000;" vertex="1" parent="1">
                    <mxGeometry x="410" y="140" width="120" height="60" as="geometry"/>
                </mxCell>
                <mxCell id="11" value="&lt;span style=&quot;font-size: 17px;&quot;&gt;Θ(1)&lt;/span&gt;" style="rounded=0;whiteSpace=wrap;html=1;fillColor=#FFFFFF;strokeColor=#000000;strokeWidth=2;fontSize=17;fontStyle=1;fontColor=#000000;" vertex="1" parent="1">
                    <mxGeometry x="50" y="200" width="120" height="60" as="geometry"/>
                </mxCell>
                <mxCell id="12" value="&lt;span style=&quot;font-size: 17px;&quot;&gt;Θ(1)&lt;/span&gt;" style="rounded=0;whiteSpace=wrap;html=1;fillColor=#FFFFFF;strokeColor=#000000;strokeWidth=2;fontSize=17;fontStyle=1;fontColor=#000000;" vertex="1" parent="1">
                    <mxGeometry x="170" y="200" width="120" height="60" as="geometry"/>
                </mxCell>
                <mxCell id="13" value="&lt;span style=&quot;font-size: 17px;&quot;&gt;Θ(1)&lt;/span&gt;" style="rounded=0;whiteSpace=wrap;html=1;fillColor=#FFFFFF;strokeColor=#000000;strokeWidth=2;fontSize=17;fontStyle=1;fontColor=#000000;" vertex="1" parent="1">
                    <mxGeometry x="290" y="200" width="120" height="60" as="geometry"/>
                </mxCell>
                <mxCell id="14" value="&lt;span style=&quot;font-size: 17px;&quot;&gt;Θ(1)&lt;/span&gt;" style="rounded=0;whiteSpace=wrap;html=1;fillColor=#FFFFFF;strokeColor=#000000;strokeWidth=2;fontSize=17;fontStyle=1;fontColor=#000000;" vertex="1" parent="1">
                    <mxGeometry x="410" y="200" width="120" height="60" as="geometry"/>
                </mxCell>
                <mxCell id="15" value="size()" style="rounded=0;whiteSpace=wrap;html=1;fillColor=#66FFFF;strokeColor=#000000;strokeWidth=2;fontSize=18;fontStyle=1;fontColor=#000000;" vertex="1" parent="1">
                    <mxGeometry x="530" y="140" width="120" height="60" as="geometry"/>
                </mxCell>
                <mxCell id="16" value="&lt;span style=&quot;font-size: 17px;&quot;&gt;Θ(1)&lt;/span&gt;" style="rounded=0;whiteSpace=wrap;html=1;fillColor=#FFFFFF;strokeColor=#000000;strokeWidth=2;fontSize=17;fontStyle=1;fontColor=#000000;" vertex="1" parent="1">
                    <mxGeometry x="530" y="200" width="120" height="60" as="geometry"/>
                </mxCell>
            </root>
        </mxGraphModel>
    </diagram>
</mxfile>